HIERARCHY
ROOT Hips
{
	OFFSET 0.000000 0.000000 0.000000
	CHANNELS 6 Xposition Yposition Zposition Yrotation Xrotation Zrotation
	JOINT Chest
	{
		OFFSET 0.000000 -0.009281 11.569106
		CHANNELS 3 Yrotation Xrotation Zrotation
		JOINT Chest2
		{
			OFFSET -0.000000 0.016865 9.269641
			CHANNELS 3 Yrotation Xrotation Zrotation
			JOINT Chest3
			{
				OFFSET -0.000000 0.000001 8.374491
				CHANNELS 3 Yrotation Xrotation Zrotation
				JOINT Chest4
				{
					OFFSET -0.000000 0.000001 8.374493
					CHANNELS 3 Yrotation Xrotation Zrotation
					JOINT Neck
					{
						OFFSET -0.000000 0.000002 12.152554
						CHANNELS 3 Yrotation Xrotation Zrotation
						JOINT Head
						{
							OFFSET -0.000000 0.040101 7.802319
							CHANNELS 3 Yrotation Xrotation Zrotation
							End Site
							{
								OFFSET -0.000000 0.020947 14.853096
							}
						}
					}
					JOINT RightCollar
					{
						OFFSET 2.894404 0.000001 6.791374
						CHANNELS 3 Yrotation Xrotation Zrotation
						JOINT RightShoulder
						{
							OFFSET 13.574684 0.000001 0.000000
							CHANNELS 3 Yrotation Xrotation Zrotation
							JOINT RightElbow
							{
								OFFSET 23.923903 0.000002 0.000000
								CHANNELS 3 Yrotation Xrotation Zrotation
								JOINT RightWrist
								{
									OFFSET 19.846718 0.012767 0.000000
									CHANNELS 3 Yrotation Xrotation Zrotation
									End Site
									{
										OFFSET 14.973145 0.000001 0.000000
									}
								}
							}
						}
					}
					JOINT LeftCollar
					{
						OFFSET -2.894404 0.000001 6.791374
						CHANNELS 3 Yrotation Xrotation Zrotation
						JOINT LeftShoulder
						{
							OFFSET -13.574684 -0.000001 0.000000
							CHANNELS 3 Yrotation Xrotation Zrotation
							JOINT LeftElbow
							{
								OFFSET -23.923903 -0.000002 0.000000
								CHANNELS 3 Yrotation Xrotation Zrotation
								JOINT LeftWrist
								{
									OFFSET -19.846718 0.012763 0.000000
									CHANNELS 3 Yrotation Xrotation Zrotation
									End Site
									{
										OFFSET -14.973145 -0.000001 0.000000
									}
								}
							}
						}
					}
				}
			}
		}
	}
	JOINT RightHip
	{
		OFFSET 9.469263 0.004643 0.045487
		CHANNELS 3 Yrotation Xrotation Zrotation
		JOINT RightKnee
		{
			OFFSET 0.000000 0.002661 -40.478676
			CHANNELS 3 Yrotation Xrotation Zrotation
			JOINT RightAnkle
			{
				OFFSET 0.000000 0.049106 -35.224068
				CHANNELS 3 Yrotation Xrotation Zrotation
				JOINT RightToe
				{
					OFFSET -0.000001 12.539529 -6.151390
					CHANNELS 3 Yrotation Xrotation Zrotation
					End Site
					{
						OFFSET -0.000001 5.044994 -1.291870
					}
				}
			}
		}
	}
	JOINT LeftHip
	{
		OFFSET -9.469263 0.004641 0.045487
		CHANNELS 3 Yrotation Xrotation Zrotation
		JOINT LeftKnee
		{
			OFFSET 0.000000 0.002661 -40.478676
			CHANNELS 3 Yrotation Xrotation Zrotation
			JOINT LeftAnkle
			{
				OFFSET 0.000000 0.049106 -35.224068
				CHANNELS 3 Yrotation Xrotation Zrotation
				JOINT LeftToe
				{
					OFFSET -0.000001 12.539529 -6.151390
					CHANNELS 3 Yrotation Xrotation Zrotation
					End Site
					{
						OFFSET -0.000001 5.044994 -1.291870
					}
				}
			}
		}
	}
}
MOTION
Frames: 16
Frame Time: 0.016667
17.489990 3.992675 82.723595 -2.041513 -0.198049 -117.616814 -2.275849 -3.825914 2.657698 -0.704490 -1.711405 1.115602 -0.704490 -1.711405 1.115599 -0.525206 -1.284847 0.834664 1.432515 -12.695047 -4.189831 0.981993 12.576093 -7.375613 9.421187 5.000717 -2.325867 42.257858 -15.048604 -13.250370 -25.923544 -61.521932 86.088449 -41.061461 38.549864 51.442803 -7.939187 5.132047 -6.767351 -40.195035 -9.438982 20.003013 0.294078 -62.653318 -64.281731 26.953701 8.687577 -72.100044 -2.556427 4.511278 8.888853 0.146764 -17.138531 -3.401856 6.472156 12.814102 7.674590 -1.560420 -2.129414 0.048544 1.436886 2.488107 -1.521027 2.743271 -7.220065 -6.341429 -1.336078 -0.363715 -2.429899 -2.467966 -0.212728 -0.063326 
17.457905 3.670343 82.879814 -2.153116 -0.208203 -117.582376 -2.307655 -3.852804 2.666463 -0.685459 -1.713692 1.122841 -0.685459 -1.713692 1.122840 -0.510908 -1.286536 0.840148 1.456598 -12.706826 -4.202075 1.023304 12.555032 -7.388486 9.414779 4.936885 -2.315052 42.121862 -15.206771 -13.025779 -25.653316 -61.544184 85.961858 -41.083062 38.519808 51.390862 -7.955157 5.189756 -6.763183 -40.293823 -9.326535 20.204485 0.187201 -62.659008 -64.108251 26.941206 8.729459 -72.109845 -2.709987 4.280080 7.452217 0.355995 -17.013199 -4.790769 5.990913 12.959205 8.047758 -0.836192 -1.845067 0.001234 1.410680 2.407227 -0.711393 2.267815 -7.772919 -4.915823 -0.122289 -0.191432 -1.827570 -2.510932 -0.190812 -0.097329 
17.504028 3.387009 83.032059 -2.238486 -0.272218 -117.613945 -2.287358 -3.900651 2.740292 -0.683534 -1.721123 1.154844 -0.683534 -1.721123 1.154847 -0.509360 -1.292141 0.864145 1.511559 -12.703953 -4.249230 1.108099 12.561564 -7.455402 9.433158 4.871873 -2.287374 42.021496 -15.367936 -12.837363 -25.367201 -61.599871 85.835124 -41.179016 38.548614 51.302220 -7.963610 5.253736 -6.741989 -40.340354 -9.147610 20.290578 0.252314 -62.668611 -64.038631 26.842290 8.722711 -72.139126 -2.909475 3.870184 5.662459 0.552169 -16.577460 -5.238814 5.114156 12.861536 7.593711 -0.086769 -1.449415 -0.031766 1.252985 2.299395 0.315707 1.845500 -8.460252 -2.405603 0.963616 0.037327 -1.546082 -2.346973 -0.099676 -0.099437 
17.661470 3.121777 83.177704 -2.314276 -0.358243 -117.686700 -2.234100 -3.959834 2.871643 -0.691401 -1.733327 1.198505 -0.691401 -1.733327 1.198508 -0.515113 -1.301358 0.896851 1.582683 -12.689519 -4.320516 1.213024 12.589582 -7.561877 9.423805 4.758223 -2.288290 41.985361 -15.429011 -12.673224 -25.162687 -61.693984 85.769370 -41.304879 38.600777 51.206427 -7.950618 5.273141 -6.742434 -40.386687 -8.967939 20.277602 0.315318 -62.621018 -63.959544 26.702604 8.606802 -72.164500 -3.150043 3.352797 3.938196 0.898946 -15.992224 -5.443124 3.814568 12.560517 6.570798 0.719363 -0.962100 -0.036319 1.029679 2.081775 1.770379 1.396447 -8.976447 0.365435 2.008669 0.156085 -1.073844 -2.107046 0.073242 -0.103111 
17.910645 2.894307 83.311996 -2.441661 -0.397083 -117.754811 -2.226778 -4.016918 3.023817 -0.701959 -1.754543 1.235979 -0.701960 -1.754543 1.235983 -0.522882 -1.317335 0.924902 1.647854 -12.671862 -4.393345 1.305818 12.623264 -7.673870 9.396435 4.573652 -2.261778 42.003297 -15.365392 -12.563100 -24.945574 -61.786137 85.660565 -41.404344 38.640467 51.132470 -7.920923 5.295439 -6.722270 -40.434594 -8.940426 20.222232 0.327634 -62.517937 -63.904302 26.586385 8.426018 -72.165948 -3.515025 2.799337 2.603048 1.366035 -15.479043 -6.348099 2.472880 12.098609 5.551875 1.498605 -0.390700 -0.011964 0.659070 1.701541 3.698642 0.942745 -9.213742 2.956265 3.005160 0.197089 -0.265958 -1.817921 0.253684 -0.109139 
18.239546 2.688573 83.431450 -2.584537 -0.437826 -117.755699 -2.211975 -4.071849 3.144767 -0.706735 -1.779825 1.247939 -0.706735 -1.779824 1.247945 -0.526376 -1.336319 0.933824 1.689231 -12.654570 -4.448256 1.360817 12.655663 -7.761674 9.370788 4.433213 -2.222038 42.049134 -15.315956 -12.541986 -24.712183 -61.821763 85.507965 -41.465354 38.669601 51.073177 -7.909245 5.257439 -6.732059 -40.419977 -8.952865 20.156991 0.339436 -62.440620 -63.933029 26.557510 8.258718 -72.138894 -4.007470 2.269966 1.368757 2.079819 -15.166640 -8.159521 1.163607 11.689956 4.902542 2.187818 0.139954 0.029470 0.251437 1.176852 5.984423 0.444682 -9.153822 5.455873 3.951696 0.135767 0.558693 -1.499327 0.468300 -0.096477 
18.637804 2.498157 83.528328 -2.720290 -0.418751 -117.627646 -2.256518 -4.114225 3.193406 -0.699634 -1.800483 1.231501 -0.699634 -1.800483 1.231502 -0.521056 -1.351781 0.921493 1.708095 -12.638540 -4.486275 1.380070 12.685139 -7.826680 9.354269 4.374466 -2.228397 42.083104 -15.283563 -12.569916 -24.489811 -61.812228 85.363096 -41.467308 38.662549 51.040501 -7.885025 5.171266 -6.782217 -40.360380 -8.962627 20.079405 0.379477 -62.433502 -64.026747 26.588740 8.152831 -72.084676 -4.631832 1.776713 -0.204764 2.797594 -15.045886 -10.607508 -0.095988 11.382301 4.504222 2.891989 0.622761 0.080761 -0.219084 0.612908 8.442661 -0.078535 -8.907245 7.817203 4.832578 0.112680 1.392851 -1.186552 0.629923 -0.060481 
19.070658 2.316970 83.599388 -2.758540 -0.447743 -117.351393 -2.228991 -4.123722 3.152069 -0.675192 -1.810104 1.191164 -0.675191 -1.810103 1.191165 -0.502825 -1.358902 0.891302 1.709402 -12.633208 -4.517328 1.369377 12.694085 -7.885418 9.339260 4.336861 -2.243358 42.090214 -15.160921 -12.621092 -24.374247 -61.776363 85.319759 -41.398791 38.615294 51.048151 -7.852745 5.081441 -6.835055 -40.314058 -9.037743 20.008539 0.360418 -62.465768 -64.061341 26.680934 8.093001 -72.001880 -5.200903 1.423636 -2.167271 3.552001 -15.171781 -13.255473 -1.278115 11.241644 4.145100 3.459669 0.984599 0.115207 -0.618505 0.037875 10.903388 -0.471656 -8.458785 9.649223 5.506170 0.134950 2.276619 -0.877724 0.688776 -0.018825 
19.570202 2.331037 83.474030 -2.727014 -0.429684 -116.954217 -2.239124 -4.079284 3.033406 -0.630313 -1.805121 1.133715 -0.630313 -1.805122 1.133716 -0.469348 -1.355017 0.848356 1.700704 -12.640591 -4.549090 1.340036 12.678893 -7.949248 9.325388 4.391137 -2.242160 42.082220 -15.026438 -12.747310 -24.446080 -61.709789 85.444321 -41.260254 38.561858 51.101334 -7.821009 4.957869 -6.886881 -40.300292 -9.139324 19.956004 0.212905 -62.506640 -63.968137 26.793560 8.064079 -71.839465 -5.294772 1.096886 -4.289687 4.130051 -15.255863 -15.697918 -2.229430 11.262556 4.136107 3.480466 1.225607 -0.001035 -1.087452 -0.558204 13.171070 -0.421583 -7.726420 10.288248 5.914428 0.311050 3.052565 -0.692740 0.439111 0.029688 
20.069504 2.445261 83.469139 -2.511740 -0.752365 -116.515951 -1.939842 -4.022019 2.857802 -0.554468 -1.794076 1.090082 -0.554468 -1.794077 1.090080 -0.412617 -1.346553 0.815870 1.691333 -12.651441 -4.591594 1.305157 12.656835 -8.033663 9.324642 4.559079 -2.231421 42.044930 -14.973863 -12.936167 -24.707028 -61.629712 85.713430 -41.113508 38.617961 51.225138 -7.858257 4.925081 -6.937159 -40.299130 -9.304382 19.996309 -0.080966 -62.564205 -63.704327 26.931649 7.975607 -71.547481 -4.936018 1.008532 -6.346699 4.453308 -15.772925 -16.559486 -2.707357 11.373021 3.191669 3.068643 1.413663 -0.164008 -1.194574 -1.280112 14.606812 0.206270 -6.867029 9.727763 5.230350 0.576350 3.853784 -0.147540 0.082842 0.112299 
20.498583 2.337626 83.480911 -2.139546 -1.169911 -116.144771 -1.504329 -3.930488 2.732638 -0.487059 -1.761607 1.053001 -0.487059 -1.761607 1.053002 -0.362230 -1.322051 0.788288 1.709763 -12.654883 -4.648427 1.316807 12.649479 -8.134001 9.304626 4.638473 -2.183685 41.977386 -14.900625 -13.035912 -25.187347 -61.523523 86.117662 -41.028557 38.766989 51.348823 -7.880175 4.915469 -6.910226 -40.360028 -9.382853 20.016100 -0.462740 -62.654193 -63.328401 26.967965 7.823084 -71.131523 -4.523284 1.007984 -8.002828 5.150306 -15.585821 -15.533172 -3.518918 10.556775 0.764263 2.387837 1.725601 -0.174020 -0.605894 -1.724304 14.772989 0.147885 -6.315902 8.571900 4.134846 0.995653 5.390452 0.724232 -0.342639 0.222962 
20.725010 1.990813 83.505707 -1.854088 -1.318555 -115.609093 -1.255514 -3.866103 2.411729 -0.491194 -1.722757 1.023595 -0.491194 -1.722756 1.023593 -0.365482 -1.292895 0.766255 1.779560 -12.613618 -4.713552 1.420227 12.727546 -8.230268 9.190316 4.657284 -2.298384 42.005650 -15.001621 -12.876070 -25.685454 -61.401358 86.367845 -40.923119 38.753988 51.484976 -7.996757 5.004050 -7.034981 -40.370499 -9.323784 20.251957 -0.946038 -62.695474 -62.851510 26.850286 7.661738 -71.026666 -4.388230 1.546203 -9.406292 5.064743 -15.899973 -15.307127 -3.341464 9.733374 0.254285 1.757697 1.896542 -0.192330 0.062705 -2.210303 13.765206 -0.400550 -5.682045 8.472454 3.106545 1.217090 6.458894 1.409639 -0.509317 0.242083 
20.790747 1.470192 83.558228 -1.782371 -1.259464 -115.273622 -1.194390 -3.859860 2.218531 -0.581362 -1.720636 0.997909 -0.581363 -1.720636 0.997906 -0.433180 -1.291432 0.746737 1.896886 -12.575530 -4.775024 1.615746 12.802393 -8.299561 9.176083 4.900140 -2.327039 42.072442 -15.249225 -12.761305 -26.003182 -61.509234 86.303525 -40.856020 38.609365 51.543087 -8.272580 5.441936 -7.112216 -40.267206 -9.381555 20.674774 -1.100052 -62.819675 -62.560264 26.635518 7.808394 -71.268967 -4.444486 2.108231 -10.002412 4.515969 -16.599390 -14.626683 -2.927493 9.301235 -0.644693 1.385256 1.848481 -0.169325 0.642214 -2.412161 12.997774 -0.986943 -5.569985 9.254189 2.228789 1.363404 6.485545 1.753642 -0.419020 0.227414 
20.715797 1.061975 83.611008 -1.908434 -1.046313 -115.135748 -1.365930 -3.884024 2.171073 -0.701388 -1.755047 0.996201 -0.701388 -1.755047 0.996202 -0.523140 -1.317435 0.745081 2.021136 -12.535931 -4.853759 1.817203 12.879853 -8.398791 9.143804 4.777319 -2.306618 42.137872 -15.210741 -12.424601 -25.858205 -61.811006 85.981864 -40.834662 38.387179 51.510736 -8.282027 5.385745 -7.077781 -40.233041 -9.148844 20.675799 -0.808234 -62.972384 -62.713861 26.390688 8.274056 -71.646827 -4.682447 2.845304 -9.086162 4.249328 -17.778900 -15.051816 -2.414448 9.101003 -1.343250 1.068606 1.895403 -0.113664 0.773601 -2.480276 12.365773 -1.165335 -5.675381 10.646787 1.465886 1.424838 5.959062 1.790688 -0.243079 0.154229 
20.522493 0.740227 83.635193 -2.044948 -0.908191 -115.170882 -1.566914 -3.958643 2.270679 -0.804232 -1.816987 1.040625 -0.804232 -1.816986 1.040628 -0.600030 -1.364116 0.778013 2.111569 -12.432823 -4.959989 1.939351 13.072485 -8.566650 9.021456 4.168702 -2.474808 42.229011 -15.155235 -11.702539 -25.418325 -61.835676 85.665728 -40.882972 38.161759 51.418310 -8.062887 5.068784 -7.175843 -40.342611 -8.988536 20.510677 -0.429491 -62.784895 -63.075950 26.415330 8.645510 -72.087695 -4.820409 3.819330 -6.877829 4.309711 -19.154007 -16.238915 -1.702320 9.060700 -2.020902 0.627920 1.836540 -0.081775 0.788488 -2.410427 12.159926 -0.975727 -5.841557 10.852232 0.850667 1.366088 6.142269 1.627499 -0.112197 0.097494 
20.183973 0.499040 83.634064 -2.189870 -0.864714 -115.325586 -1.748935 -4.097292 2.431212 -0.860334 -1.890972 1.115416 -0.860334 -1.890972 1.115415 -0.641743 -1.419808 0.833825 2.133114 -12.325897 -5.060050 1.932474 13.268686 -8.752014 9.030616 3.644390 -2.426732 42.205054 -15.157942 -11.238853 -25.136013 -61.619009 85.611504 -41.033120 38.075183 51.267718 -7.859860 5.010446 -7.178672 -40.495201 -9.206644 20.346329 -0.076244 -62.389045 -63.366315 26.475697 8.757342 -72.316253 -4.896876 4.612984 -4.716569 4.446123 -20.285141 -17.162346 -1.016294 9.103131 -2.142962 0.237293 1.660458 -0.060308 0.872612 -2.395899 12.392367 -0.799555 -5.837240 10.000943 0.502930 1.285576 6.871840 1.376558 -0.138620 0.042909 
